<svg width="128" height="24" viewBox="0 0 128 24" fill="none" xmlns="http://www.w3.org/2000/svg">
<path fill-rule="evenodd" clip-rule="evenodd" d="M7.73124 20.8327C7.22417 21.0973 6.61072 21.0507 6.14946 20.7125C5.68819 20.3742 5.45933 19.8032 5.55933 19.24L6.36867 14.6011L2.96125 11.3357C2.54475 10.9385 2.39211 10.3381 2.56835 9.79022C2.74458 9.24234 3.21864 8.84352 3.7886 8.76363L8.51957 8.08735L10.6555 3.82658C10.9087 3.31558 11.4297 2.99231 12 2.99231C12.5703 2.99231 13.0913 3.31558 13.3446 3.82658L15.4805 8.08735L20.2114 8.76363C20.7814 8.84352 21.2555 9.24234 21.4317 9.79022C21.6079 10.3381 21.4553 10.9385 21.0388 11.3357L17.6314 14.6011L18.4407 19.241C18.5407 19.8042 18.3118 20.3752 17.8506 20.7135C17.3893 21.0517 16.7759 21.0983 16.2688 20.8337L12 18.6277L7.73124 20.8327Z" fill="#FAE101" stroke="#FAE101" stroke-width="1.5" stroke-linecap="round" stroke-linejoin="round"/>
<path fill-rule="evenodd" clip-rule="evenodd" d="M33.7312 20.8327C33.2242 21.0973 32.6107 21.0507 32.1495 20.7125C31.6882 20.3742 31.4593 19.8032 31.5593 19.24L32.3687 14.6011L28.9613 11.3357C28.5448 10.9385 28.3921 10.3381 28.5683 9.79022C28.7446 9.24234 29.2186 8.84352 29.7886 8.76363L34.5196 8.08735L36.6555 3.82658C36.9087 3.31558 37.4297 2.99231 38 2.99231C38.5703 2.99231 39.0913 3.31558 39.3446 3.82658L41.4805 8.08735L46.2114 8.76363C46.7814 8.84352 47.2555 9.24234 47.4317 9.79022C47.6079 10.3381 47.4553 10.9385 47.0388 11.3357L43.6314 14.6011L44.4407 19.241C44.5407 19.8042 44.3118 20.3752 43.8506 20.7135C43.3893 21.0517 42.7759 21.0983 42.2688 20.8337L38 18.6277L33.7312 20.8327Z" fill="#FAE101" stroke="#FAE101" stroke-width="1.5" stroke-linecap="round" stroke-linejoin="round"/>
<path fill-rule="evenodd" clip-rule="evenodd" d="M59.7312 20.8327C59.2242 21.0973 58.6107 21.0507 58.1495 20.7125C57.6882 20.3742 57.4593 19.8032 57.5593 19.24L58.3687 14.6011L54.9613 11.3357C54.5448 10.9385 54.3921 10.3381 54.5683 9.79022C54.7446 9.24234 55.2186 8.84352 55.7886 8.76363L60.5196 8.08735L62.6555 3.82658C62.9087 3.31558 63.4297 2.99231 64 2.99231C64.5703 2.99231 65.0913 3.31558 65.3446 3.82658L67.4805 8.08735L72.2114 8.76363C72.7814 8.84352 73.2555 9.24234 73.4317 9.79022C73.6079 10.3381 73.4553 10.9385 73.0388 11.3357L69.6314 14.6011L70.4407 19.241C70.5407 19.8042 70.3118 20.3752 69.8506 20.7135C69.3893 21.0517 68.7759 21.0983 68.2688 20.8337L64 18.6277L59.7312 20.8327Z" stroke="#FAE101" stroke-width="1.5" stroke-linecap="round" stroke-linejoin="round"/>
<path fill-rule="evenodd" clip-rule="evenodd" d="M85.7312 20.8327C85.2242 21.0973 84.6107 21.0507 84.1495 20.7125C83.6882 20.3742 83.4593 19.8032 83.5593 19.24L84.3687 14.6011L80.9613 11.3357C80.5448 10.9385 80.3921 10.3381 80.5683 9.79022C80.7446 9.24234 81.2186 8.84352 81.7886 8.76363L86.5196 8.08735L88.6555 3.82658C88.9087 3.31558 89.4297 2.99231 90 2.99231C90.5703 2.99231 91.0913 3.31558 91.3446 3.82658L93.4805 8.08735L98.2114 8.76363C98.7814 8.84352 99.2555 9.24234 99.4317 9.79022C99.6079 10.3381 99.4553 10.9385 99.0388 11.3357L95.6314 14.6011L96.4407 19.241C96.5407 19.8042 96.3118 20.3752 95.8506 20.7135C95.3893 21.0517 94.7759 21.0983 94.2688 20.8337L90 18.6277L85.7312 20.8327Z" stroke="#FAE101" stroke-width="1.5" stroke-linecap="round" stroke-linejoin="round"/>
<path fill-rule="evenodd" clip-rule="evenodd" d="M111.731 20.8327C111.224 21.0973 110.611 21.0507 110.149 20.7125C109.688 20.3742 109.459 19.8032 109.559 19.24L110.369 14.6011L106.961 11.3357C106.545 10.9385 106.392 10.3381 106.568 9.79022C106.745 9.24234 107.219 8.84352 107.789 8.76363L112.52 8.08735L114.655 3.82658C114.909 3.31558 115.43 2.99231 116 2.99231C116.57 2.99231 117.091 3.31558 117.345 3.82658L119.48 8.08735L124.211 8.76363C124.781 8.84352 125.255 9.24234 125.432 9.79022C125.608 10.3381 125.455 10.9385 125.039 11.3357L121.631 14.6011L122.441 19.241C122.541 19.8042 122.312 20.3752 121.851 20.7135C121.389 21.0517 120.776 21.0983 120.269 20.8337L116 18.6277L111.731 20.8327Z" stroke="#FAE101" stroke-width="1.5" stroke-linecap="round" stroke-linejoin="round"/>
</svg>
