<svg width="108" height="20" viewBox="0 0 108 20" fill="none" xmlns="http://www.w3.org/2000/svg">
<path fill-rule="evenodd" clip-rule="evenodd" d="M6.44269 17.3606C6.02013 17.5811 5.50893 17.5423 5.12454 17.2604C4.74015 16.9785 4.54943 16.5027 4.63277 16.0333L5.30722 12.1676L2.4677 9.44643C2.12062 9.11544 1.99342 8.6151 2.14028 8.15853C2.28714 7.70196 2.68219 7.36961 3.15715 7.30304L7.09963 6.73947L8.87954 3.18883C9.09057 2.763 9.52475 2.49361 10 2.49361C10.4753 2.49361 10.9094 2.763 11.1205 3.18883L12.9004 6.73947L16.8429 7.30304C17.3178 7.36961 17.7129 7.70196 17.8597 8.15853C18.0066 8.6151 17.8794 9.11544 17.5323 9.44643L14.6928 12.1676L15.3672 16.0342C15.4506 16.5035 15.2599 16.9794 14.8755 17.2613C14.4911 17.5431 13.9799 17.582 13.5573 17.3614L10 15.5231L6.44269 17.3606Z" fill="#FAE101" stroke="#FAE101" stroke-width="1.5" stroke-linecap="round" stroke-linejoin="round"/>
<path fill-rule="evenodd" clip-rule="evenodd" d="M28.4427 17.3606C28.0201 17.5811 27.5089 17.5423 27.1245 17.2604C26.7401 16.9785 26.5494 16.5027 26.6327 16.0333L27.3072 12.1676L24.4677 9.44643C24.1206 9.11544 23.9934 8.6151 24.1402 8.15853C24.2871 7.70196 24.6822 7.36961 25.1571 7.30304L29.0996 6.73947L30.8795 3.18883C31.0905 2.763 31.5247 2.49361 32 2.49361C32.4752 2.49361 32.9094 2.763 33.1204 3.18883L34.9003 6.73947L38.8428 7.30304C39.3178 7.36961 39.7128 7.70196 39.8597 8.15853C40.0066 8.6151 39.8794 9.11544 39.5323 9.44643L36.6928 12.1676L37.3672 16.0342C37.4505 16.5035 37.2598 16.9794 36.8754 17.2613C36.4911 17.5431 35.9798 17.582 35.5573 17.3614L32 15.5231L28.4427 17.3606Z" fill="#FAE101" stroke="#FAE101" stroke-width="1.5" stroke-linecap="round" stroke-linejoin="round"/>
<path fill-rule="evenodd" clip-rule="evenodd" d="M50.4427 17.3606C50.0201 17.5811 49.5089 17.5423 49.1245 17.2604C48.7401 16.9785 48.5494 16.5027 48.6327 16.0333L49.3072 12.1676L46.4677 9.44643C46.1206 9.11544 45.9934 8.6151 46.1402 8.15853C46.2871 7.70196 46.6822 7.36961 47.1571 7.30304L51.0996 6.73947L52.8795 3.18883C53.0905 2.763 53.5247 2.49361 54 2.49361C54.4752 2.49361 54.9094 2.763 55.1204 3.18883L56.9003 6.73947L60.8428 7.30304C61.3178 7.36961 61.7128 7.70196 61.8597 8.15853C62.0066 8.6151 61.8794 9.11544 61.5323 9.44643L58.6928 12.1676L59.3672 16.0342C59.4505 16.5035 59.2598 16.9794 58.8754 17.2613C58.4911 17.5431 57.9798 17.582 57.5573 17.3614L54 15.5231L50.4427 17.3606Z" fill="#FAE101" stroke="#FAE101" stroke-width="1.5" stroke-linecap="round" stroke-linejoin="round"/>
<path fill-rule="evenodd" clip-rule="evenodd" d="M72.4427 17.3606C72.0201 17.5811 71.5089 17.5423 71.1245 17.2604C70.7401 16.9785 70.5494 16.5027 70.6327 16.0333L71.3072 12.1676L68.4677 9.44643C68.1206 9.11544 67.9934 8.6151 68.1402 8.15853C68.2871 7.70196 68.6822 7.36961 69.1571 7.30304L73.0996 6.73947L74.8795 3.18883C75.0905 2.763 75.5247 2.49361 76 2.49361C76.4752 2.49361 76.9094 2.763 77.1204 3.18883L78.9003 6.73947L82.8428 7.30304C83.3178 7.36961 83.7128 7.70196 83.8597 8.15853C84.0066 8.6151 83.8794 9.11544 83.5323 9.44643L80.6928 12.1676L81.3672 16.0342C81.4505 16.5035 81.2598 16.9794 80.8754 17.2613C80.4911 17.5431 79.9798 17.582 79.5573 17.3614L76 15.5231L72.4427 17.3606Z" fill="#FAE101" stroke="#FAE101" stroke-width="1.5" stroke-linecap="round" stroke-linejoin="round"/>
<path fill-rule="evenodd" clip-rule="evenodd" d="M94.4427 17.3606C94.0201 17.5811 93.5089 17.5423 93.1245 17.2604C92.7401 16.9785 92.5494 16.5027 92.6327 16.0333L93.3072 12.1676L90.4677 9.44643C90.1206 9.11544 89.9934 8.6151 90.1402 8.15853C90.2871 7.70196 90.6822 7.36961 91.1571 7.30304L95.0996 6.73947L96.8795 3.18883C97.0905 2.763 97.5247 2.49361 98 2.49361C98.4752 2.49361 98.9094 2.763 99.1204 3.18883L100.9 6.73947L104.843 7.30304C105.318 7.36961 105.713 7.70196 105.86 8.15853C106.007 8.6151 105.879 9.11544 105.532 9.44643L102.693 12.1676L103.367 16.0342C103.451 16.5035 103.26 16.9794 102.875 17.2613C102.491 17.5431 101.98 17.582 101.557 17.3614L98 15.5231L94.4427 17.3606Z" fill="#FAE101" stroke="#FAE101" stroke-width="1.5" stroke-linecap="round" stroke-linejoin="round"/>
</svg>
