<svg width="144" height="40" viewBox="0 0 144 40" fill="none" xmlns="http://www.w3.org/2000/svg">
<rect width="40" height="40" rx="4" fill="#FAE101"/>
<path d="M14.8352 26.2216C13.8996 26.2216 13.0966 25.9848 12.4261 25.5114C11.7595 25.0341 11.2462 24.3466 10.8864 23.4489C10.5303 22.5473 10.3523 21.4621 10.3523 20.1932C10.3561 18.9242 10.536 17.8447 10.892 16.9545C11.2519 16.0606 11.7652 15.3788 12.4318 14.9091C13.1023 14.4394 13.9034 14.2045 14.8352 14.2045C15.767 14.2045 16.5682 14.4394 17.2386 14.9091C17.9091 15.3788 18.4223 16.0606 18.7784 16.9545C19.1383 17.8485 19.3182 18.928 19.3182 20.1932C19.3182 21.4659 19.1383 22.553 18.7784 23.4545C18.4223 24.3523 17.9091 25.0379 17.2386 25.5114C16.572 25.9848 15.7708 26.2216 14.8352 26.2216ZM14.8352 24.4432C15.5625 24.4432 16.1364 24.0852 16.5568 23.3693C16.9811 22.6496 17.1932 21.5909 17.1932 20.1932C17.1932 19.2689 17.0966 18.4924 16.9034 17.8636C16.7102 17.2348 16.4375 16.7614 16.0852 16.4432C15.733 16.1212 15.3163 15.9602 14.8352 15.9602C14.1117 15.9602 13.5398 16.3201 13.1193 17.0398C12.6989 17.7557 12.4867 18.8068 12.483 20.1932C12.4792 21.1212 12.572 21.9015 12.7614 22.5341C12.9545 23.1667 13.2273 23.6439 13.5795 23.9659C13.9318 24.2841 14.3504 24.4432 14.8352 24.4432ZM25.2514 26.1591C24.4938 26.1591 23.8158 26.017 23.2173 25.733C22.6188 25.4451 22.1435 25.0511 21.7912 24.5511C21.4427 24.0511 21.2571 23.4792 21.2344 22.8352H23.2798C23.3177 23.3125 23.5241 23.7027 23.8991 24.0057C24.2741 24.3049 24.7249 24.4545 25.2514 24.4545C25.6643 24.4545 26.0317 24.3598 26.3537 24.1705C26.6757 23.9811 26.9295 23.7178 27.1151 23.3807C27.3007 23.0436 27.3916 22.6591 27.3878 22.2273C27.3916 21.7879 27.2988 21.3977 27.1094 21.0568C26.92 20.7159 26.6605 20.4489 26.331 20.2557C26.0014 20.0587 25.6226 19.9602 25.1946 19.9602C24.8461 19.9564 24.5033 20.0208 24.1662 20.1534C23.8291 20.286 23.562 20.4602 23.3651 20.6761L21.4616 20.3636L22.0696 14.3636H28.8196V16.125H23.8139L23.4787 19.2102H23.5469C23.7628 18.9564 24.0677 18.7462 24.4616 18.5795C24.8556 18.4091 25.2874 18.3239 25.7571 18.3239C26.4616 18.3239 27.0904 18.4905 27.6435 18.8239C28.1965 19.1534 28.6321 19.608 28.9503 20.1875C29.2685 20.767 29.4276 21.4299 29.4276 22.1761C29.4276 22.9451 29.2495 23.6307 28.8935 24.233C28.5412 24.8314 28.0507 25.303 27.4219 25.6477C26.7969 25.9886 26.0734 26.1591 25.2514 26.1591Z" fill="black"/>
<rect x="44" y="15" width="4" height="4" rx="2" fill="#D9D9D9"/>
<rect x="44" y="21" width="4" height="4" rx="2" fill="#D9D9D9"/>
<rect x="52" width="40" height="40" rx="4" fill="#FAE101"/>
<path d="M66.5795 26.1591C65.822 26.1591 65.1439 26.017 64.5455 25.733C63.947 25.4451 63.4716 25.0511 63.1193 24.5511C62.7708 24.0511 62.5852 23.4792 62.5625 22.8352H64.608C64.6458 23.3125 64.8523 23.7027 65.2273 24.0057C65.6023 24.3049 66.053 24.4545 66.5795 24.4545C66.9924 24.4545 67.3598 24.3598 67.6818 24.1705C68.0038 23.9811 68.2576 23.7178 68.4432 23.3807C68.6288 23.0436 68.7197 22.6591 68.7159 22.2273C68.7197 21.7879 68.6269 21.3977 68.4375 21.0568C68.2481 20.7159 67.9886 20.4489 67.6591 20.2557C67.3295 20.0587 66.9508 19.9602 66.5227 19.9602C66.1742 19.9564 65.8314 20.0208 65.4943 20.1534C65.1572 20.286 64.8902 20.4602 64.6932 20.6761L62.7898 20.3636L63.3977 14.3636H70.1477V16.125H65.142L64.8068 19.2102H64.875C65.0909 18.9564 65.3958 18.7462 65.7898 18.5795C66.1837 18.4091 66.6155 18.3239 67.0852 18.3239C67.7898 18.3239 68.4186 18.4905 68.9716 18.8239C69.5246 19.1534 69.9602 19.608 70.2784 20.1875C70.5966 20.767 70.7557 21.4299 70.7557 22.1761C70.7557 22.9451 70.5777 23.6307 70.2216 24.233C69.8693 24.8314 69.3788 25.303 68.75 25.6477C68.125 25.9886 67.4015 26.1591 66.5795 26.1591ZM76.8352 26.1591C76.017 26.1591 75.2898 26.0189 74.6534 25.7386C74.0208 25.4583 73.5208 25.0682 73.1534 24.5682C72.786 24.0682 72.5909 23.4905 72.5682 22.8352H74.7045C74.7235 23.1496 74.8277 23.4242 75.017 23.6591C75.2064 23.8902 75.4583 24.0701 75.7727 24.1989C76.0871 24.3277 76.4394 24.392 76.8295 24.392C77.2462 24.392 77.6155 24.3201 77.9375 24.1761C78.2595 24.0284 78.5114 23.8239 78.6932 23.5625C78.875 23.3011 78.964 23 78.9602 22.6591C78.964 22.3068 78.8731 21.9962 78.6875 21.7273C78.5019 21.4583 78.233 21.2481 77.8807 21.0966C77.5322 20.9451 77.1117 20.8693 76.6193 20.8693H75.5909V19.2443H76.6193C77.0246 19.2443 77.3788 19.1742 77.6818 19.0341C77.9886 18.8939 78.2292 18.697 78.4034 18.4432C78.5777 18.1856 78.6629 17.8883 78.6591 17.5511C78.6629 17.2216 78.589 16.9356 78.4375 16.6932C78.2898 16.447 78.0795 16.2557 77.8068 16.1193C77.5379 15.983 77.2216 15.9148 76.858 15.9148C76.5019 15.9148 76.1723 15.9792 75.8693 16.108C75.5663 16.2367 75.322 16.4205 75.1364 16.6591C74.9508 16.8939 74.8523 17.1742 74.8409 17.5H72.8125C72.8277 16.8485 73.0152 16.2765 73.375 15.7841C73.7386 15.2879 74.2235 14.9015 74.8295 14.625C75.4356 14.3447 76.1155 14.2045 76.8693 14.2045C77.6458 14.2045 78.3201 14.3504 78.892 14.642C79.4678 14.9299 79.9129 15.3182 80.2273 15.8068C80.5417 16.2955 80.6989 16.8352 80.6989 17.4261C80.7027 18.0814 80.5095 18.6307 80.1193 19.0739C79.733 19.517 79.2254 19.8068 78.5966 19.9432V20.0341C79.4148 20.1477 80.0417 20.4508 80.4773 20.9432C80.9167 21.4318 81.1345 22.0398 81.1307 22.767C81.1307 23.4186 80.9451 24.0019 80.5739 24.517C80.2064 25.0284 79.6989 25.4299 79.0511 25.7216C78.4072 26.0133 77.6686 26.1591 76.8352 26.1591Z" fill="black"/>
<rect x="96" y="15" width="4" height="4" rx="2" fill="#D9D9D9"/>
<rect x="96" y="21" width="4" height="4" rx="2" fill="#D9D9D9"/>
<rect x="104" width="40" height="40" rx="4" fill="#FAE101"/>
<path d="M113.824 23.8409V22.1648L118.761 14.3636H120.159V16.75H119.307L115.983 22.017V22.108H122.875V23.8409H113.824ZM119.375 26V23.3295L119.398 22.5795V14.3636H121.386V26H119.375ZM128.991 26.2216C128.056 26.2216 127.253 25.9848 126.582 25.5114C125.916 25.0341 125.402 24.3466 125.043 23.4489C124.687 22.5473 124.509 21.4621 124.509 20.1932C124.512 18.9242 124.692 17.8447 125.048 16.9545C125.408 16.0606 125.921 15.3788 126.588 14.9091C127.259 14.4394 128.06 14.2045 128.991 14.2045C129.923 14.2045 130.724 14.4394 131.395 14.9091C132.065 15.3788 132.579 16.0606 132.935 16.9545C133.295 17.8485 133.474 18.928 133.474 20.1932C133.474 21.4659 133.295 22.553 132.935 23.4545C132.579 24.3523 132.065 25.0379 131.395 25.5114C130.728 25.9848 129.927 26.2216 128.991 26.2216ZM128.991 24.4432C129.719 24.4432 130.293 24.0852 130.713 23.3693C131.137 22.6496 131.349 21.5909 131.349 20.1932C131.349 19.2689 131.253 18.4924 131.06 17.8636C130.866 17.2348 130.594 16.7614 130.241 16.4432C129.889 16.1212 129.473 15.9602 128.991 15.9602C128.268 15.9602 127.696 16.3201 127.276 17.0398C126.855 17.7557 126.643 18.8068 126.639 20.1932C126.635 21.1212 126.728 21.9015 126.918 22.5341C127.111 23.1667 127.384 23.6439 127.736 23.9659C128.088 24.2841 128.507 24.4432 128.991 24.4432Z" fill="black"/>
</svg>
